<svg xmlns="http://www.w3.org/2000/svg" width="50" height="49.999" viewBox="0 0 50 49.999">
  <g id="icon-seo" transform="translate(217.844 260.012)">
    <path id="パス_40" data-name="パス 40" d="M25,.006a25,25,0,1,0,25,25A25,25,0,0,0,25,.006ZM9.532,9.538a21.887,21.887,0,0,1,8.15-5.149,22.9,22.9,0,0,0-3.687,6.75H8.083C8.54,10.582,9.023,10.047,9.532,9.538ZM6.407,13.482h6.835a42.229,42.229,0,0,0-1.5,10.351H3.157A21.729,21.729,0,0,1,6.407,13.482Zm0,23.046a21.729,21.729,0,0,1-3.25-10.351H11.75a42.351,42.351,0,0,0,1.485,10.351H6.407Zm3.125,3.944c-.509-.509-.992-1.044-1.449-1.6H14a27.893,27.893,0,0,0,1.4,3.243,19.825,19.825,0,0,0,2.28,3.5A21.885,21.885,0,0,1,9.532,40.473Zm14.3,6.375q-.549-.029-1.09-.084a7.672,7.672,0,0,1-1.709-1.07A16.862,16.862,0,0,1,16.5,38.872h7.33v7.976Zm0-10.319H15.68a39.471,39.471,0,0,1-1.595-10.351h9.742V36.529Zm0-12.7H14.093a39.411,39.411,0,0,1,1.6-10.351h8.138V23.834Zm0-12.7H16.508c.3-.761.622-1.5.97-2.167a14.672,14.672,0,0,1,3.55-4.654,7.671,7.671,0,0,1,1.709-1.07q.541-.056,1.09-.084v7.976Zm19.765,2.344a21.729,21.729,0,0,1,3.25,10.351H38.25a42.331,42.331,0,0,0-1.485-10.351h6.828ZM40.468,9.538c.509.509.992,1.045,1.449,1.6H36A27.977,27.977,0,0,0,34.6,7.9a19.828,19.828,0,0,0-2.28-3.5A21.9,21.9,0,0,1,40.468,9.538Zm-14.3-6.375q.549.029,1.09.084a7.716,7.716,0,0,1,1.709,1.07A16.857,16.857,0,0,1,33.5,11.138h-7.33Zm0,10.319H34.32a39.458,39.458,0,0,1,1.595,10.351H26.172Zm0,12.7h9.735a39.405,39.405,0,0,1-1.6,10.351H26.172Zm2.8,19.516a7.709,7.709,0,0,1-1.709,1.07q-.541.055-1.09.084V38.872h7.319c-.3.761-.622,1.5-.97,2.167A14.67,14.67,0,0,1,28.971,45.694Zm11.5-5.221a21.883,21.883,0,0,1-8.15,5.149A22.9,22.9,0,0,0,36,38.872h5.912C41.46,39.428,40.977,39.964,40.468,40.473Zm3.125-3.944H36.757a42.235,42.235,0,0,0,1.5-10.351h8.585A21.729,21.729,0,0,1,43.593,36.529Z" transform="translate(-217.844 -260.018)" fill="#6fb4c3"/>
  </g>
</svg>
