<svg xmlns="http://www.w3.org/2000/svg" width="50" height="50" viewBox="0 0 50 50">
  <g id="icon-javascript" transform="translate(-950 -1999)">
    <g id="長方形_17" data-name="長方形 17" transform="translate(955 2004)" fill="#707070" stroke="#707070" stroke-width="1">
      <rect width="40" height="44" stroke="none"/>
      <rect x="0.5" y="0.5" width="39" height="43" fill="none"/>
    </g>
    <path id="javascript_filled_icon_201353" d="M3,12.028V43.972A9.028,9.028,0,0,0,12.028,53H43.972A9.028,9.028,0,0,0,53,43.972V12.028A9.028,9.028,0,0,0,43.972,3H12.028A9.028,9.028,0,0,0,3,12.028Zm25,9.028a2.083,2.083,0,0,1,2.083,2.083V39.806a4.861,4.861,0,0,1-4.861,4.861H21.75a2.083,2.083,0,0,1,0-4.167h3.472a.694.694,0,0,0,.694-.694V23.139A2.083,2.083,0,0,1,28,21.056Zm5.556,4.861a4.861,4.861,0,0,1,4.861-4.861h4.167a2.083,2.083,0,1,1,0,4.167H38.417a.694.694,0,0,0-.694.694v4.167a.694.694,0,0,0,.694.694h1.389a4.861,4.861,0,0,1,4.861,4.861v4.167a4.861,4.861,0,0,1-4.861,4.861H35.639a2.083,2.083,0,0,1,0-4.167h4.167a.694.694,0,0,0,.694-.694V35.639a.694.694,0,0,0-.694-.694H38.417a4.861,4.861,0,0,1-4.861-4.861Z" transform="translate(947 1996)" fill="#ffee6b"/>
  </g>
</svg>
