<svg xmlns="http://www.w3.org/2000/svg" width="50" height="52.823" viewBox="0 0 50 52.823">
  <g id="icon-php" transform="translate(-2.683 -1)">
    <path id="パス_39" data-name="パス 39" d="M47.959,6.2A11.9,11.9,0,0,0,28.908,3.689a10.188,10.188,0,0,0-2.1,3.29,15.609,15.609,0,0,0-.626,4.5,20.722,20.722,0,0,0,1.41,7.4,15.981,15.981,0,0,0,3.882,5.945,9.485,9.485,0,0,0,3.631,2.148,8.069,8.069,0,0,0,2.39.357,9.58,9.58,0,0,0,3.193-.575l.615,1.754a11.442,11.442,0,0,1-3.808.679,9.95,9.95,0,0,1-3.281-.551,10.908,10.908,0,0,1-2.872-1.518,15.5,15.5,0,0,1-4.329-5.092,21.388,21.388,0,0,1-1.787-4.34,22.348,22.348,0,0,1-.9-6.209,18.982,18.982,0,0,1,.142-2.35c-12.617,7.4-11.7,20.87-9.381,28.407,2.1,6.806,4.253,15.062,4.253,15.062h9.037a64.28,64.28,0,0,1,.679-8.256c.624-4.343,7.826-4.325,8.358-.072.246,1.965.177,8.327.177,8.327H46.8s1.241-9.922,2.3-17.011c.649-4.328,6.542-4.293,5.493-.354-1.418,5.315-1.12,11.5.8,15.523.691,1.449,1.243,2.573,2.3,1.841a20.436,20.436,0,0,1,3.185-2.2c.84-.283-.514-1.891-.8-3.47-1.24-6.911,2.127-9.215,3.367-18.429C65.082,16.456,57.6,8.889,47.959,6.2Zm4.575,16.63a1.191,1.191,0,1,1,1.191-1.191A1.192,1.192,0,0,1,52.534,22.828Z" transform="translate(-11 1)" fill="#d07eb9"/>
  </g>
</svg>
