<svg xmlns="http://www.w3.org/2000/svg" width="95" height="51.214" viewBox="0 0 95 51.214">
  <g id="icon-html5css3" transform="translate(-415.415 -2000.481)">
    <g id="file_type_css_icon_130661" transform="translate(465.415 2000.481)">
      <path id="パス_43" data-name="パス 43" d="M7.75,47.935,3.656,2h45l-4.1,45.928L26.129,53.037Z" transform="translate(-3.656 -2)" fill="#6fb4c3"/>
      <path id="パス_44" data-name="パス 44" d="M16,47.437l14.892-4.129L34.4,4.061H16Z" transform="translate(6.5 -0.304)" fill="#80c7d6"/>
      <path id="パス_45" data-name="パス 45" d="M16,18.338h7.455l.514-5.769H16V6.935H30.126l-.135,1.511L28.608,23.972H16Z" transform="translate(6.5 2.06)" fill="#fff"/>
      <path id="パス_46" data-name="パス 46" d="M21.6,24.008l-.026.007L15.3,22.32l-.4-4.493H9.24l.789,8.846,11.54,3.2.027-.007Z" transform="translate(0.938 11.022)" fill="#ebebeb"/>
      <path id="パス_47" data-name="パス 47" d="M22.969,16.151,22.291,23.7l-6.283,1.7v5.862l11.549-3.2.086-.951.979-10.949Z" transform="translate(6.507 9.643)" fill="#fff"/>
      <path id="パス_48" data-name="パス 48" d="M22.382,6.935v5.634H8.773L8.66,11.3,8.4,8.446,8.268,6.935Z" transform="translate(0.139 2.06)" fill="#ebebeb"/>
      <path id="パス_49" data-name="パス 49" d="M19.024,13.191v5.634h-6.2l-.113-1.267L12.46,14.7l-.135-1.511Z" transform="translate(3.476 7.207)" fill="#ebebeb"/>
    </g>
    <g id="file_type_html_icon_130541" transform="translate(415.415 2000.481)">
      <path id="パス_31" data-name="パス 31" d="M7.751,48.095,3.655,2h45l-4.1,46.087L26.13,53.214Z" transform="translate(-3.655 -2)" fill="#e2915a"/>
      <path id="パス_32" data-name="パス 32" d="M16,47.614l14.892-4.145L34.4,4.061H16Z" transform="translate(6.502 -0.304)" fill="#f0a674"/>
      <path id="パス_33" data-name="パス 33" d="M22.376,18.554H14.921l-.514-5.769h7.969V7.151H8.25l.135,1.513L9.768,24.188H22.376Z" transform="translate(0.126 2.287)" fill="#ebebeb"/>
      <path id="パス_34" data-name="パス 34" d="M21.577,24.223l-.026.007-6.274-1.693-.4-4.493H9.221l.789,8.844,11.542,3.2.026-.007Z" transform="translate(0.924 11.333)" fill="#ebebeb"/>
      <path id="パス_35" data-name="パス 35" d="M15.989,13.407v5.634h6.937l-.653,7.307-6.285,1.7v5.862L27.54,30.7l.084-.951L28.947,14.92l.139-1.513h-13.1Z" transform="translate(6.493 7.506)" fill="#fff"/>
      <path id="パス_36" data-name="パス 36" d="M15.989,7.151v5.634H29.6l.113-1.265.257-2.856L30.1,7.151Z" transform="translate(6.493 2.275)" fill="#fff"/>
    </g>
  </g>
</svg>
