<svg xmlns="http://www.w3.org/2000/svg" viewBox="0 0 1142.9 1109.25"><defs><style>.cls-1{fill:#1a1a1a;}</style></defs><g id="レイヤー_2" data-name="レイヤー 2"><g id="レイヤー_1-2" data-name="レイヤー 1"><path class="cls-1" d="M1142.9,1024.43s-1.14-11.33-14.75-33.88l14.47,4s.89-14.44-18.87-32.81l18.57-.18s-4.37-24.7-34.35-33.7l14.38-5.29s-2.18-12.35-20.76-15.27l8.2-5.23a61,61,0,0,0-29.9.28l12.27-11.45a41.55,41.55,0,0,0-29.9.28l-4.34-22.64-8.15,10.38s-1.11-9.26-12.52-16.37l.09,9.27s-5.31-16.44-22.84-17.31l.08,9.28s-14.61-18.42-28-18.29l4.23,11.3A80.77,80.77,0,0,0,966,852.9l5.24,9.23S951.57,851,933,852.18l11.43,9.17s-8.07-1-22.45,1.18l.07,7.55s-8.39-3.81-19.25,1.66A242.14,242.14,0,0,0,888,840.36c-2.8-4.93-12.81-39.65-24.88-60-39.17-66-124.68-156-160.89-207.13C654.85,506.33,558,437.13,540.35,420.8s-39.5-64.23-41.05-83.46c-.12-1.46-.39-3.28-.77-5.37-4.7-25.59-28.8-96.42-59.81-150.77C408.63,128.45,349.78,77.09,294.29,63.53c-4.64-8.24-14.51-16.85-26.9-24.65-18-11.34-38.45-26.77-45.06-35.44s-16.89-.68-8.75,20.61c2.34,6.12,6.24,14.4,10.61,23.09C192.24,23.69,154.05,2.67,144.38,4.25a7.11,7.11,0,0,0-1.45.39h0c-13.06,5,17.38,45.09,22.43,55.91,1.58,3.39,5.31,9.62,9.69,17a149.91,149.91,0,0,0-28.56,17c-9.43,7.32-16.14,16.69-21.36,26.51a170.09,170.09,0,0,0-7.8,17.23C115,144.19,113,149.89,111,155.07c-2.87,7.5-5.66,14-9.13,18.3C91,186.86,49.09,209.24,31.06,218.09c-2.33,1.15-4.31,2.1-5.73,2.74C13,226.44-13,233.56,7.84,260.86c1.89,2.47,3.94,5,6.07,7.48a181.14,181.14,0,0,0,28.54,27.19c3.07,2.31,6.24,4.48,9.48,6.53,15.68,9.94,33.2,16.45,51.29,15.63,29.47-1.33,52,11.11,63.28,23.94a35.45,35.45,0,0,1,7.16,11.49c4.89,14.21,26.41,29.18,29.15,56.5a57.22,57.22,0,0,1,.32,7.14c-.56,24.35-11.75,59.6-12.22,105,0,0,.73,77.31,45.23,184.61,1.75,5.94,2.8,10.75,2.84,14.15.18,19.58-5.71,50.57.74,79.37s24.8,115.24,12.82,156.59-24.17,61.05-30.35,62.14-55.73-6.69-73.88,36.78c-3,9.31,7.31,10.24,17.62,10.14s76.51,23,99-.93c17-18.14,26.34-38.58,34.3-50.59,12.33,8.23,35.72,6.27,49.82,5.13,19.23-1.56,39.79-7.25,46.54-21.06s7.92-34.44,14.73-41.38,9.33-30.33,9.2-44.07c0-5.14,1.7-23.76,4.69-46.64,13.88,11.22,29.39,20.72,46.33,26.57a88.41,88.41,0,0,1,13.52,6.2c-.87,13.89-.19,29.89,2.46,48.29,17.09,63.76,108.12,95.89,108.18,102.08a1.25,1.25,0,0,1-.4.83c-4.75,5-54.59,2.09-81.91,17.26-28.72,15.94.42,44.21,54,39.74,50.24-4.18,100.49-7,127-2.27q2.64.46,5,1c17.32,4.28,84,10.54,111.7-22.37a102.61,102.61,0,0,0,43.92-19.35c2.93-2.19,5.71-4.4,8.39-6.64,14,14.31,47.32,32.39,79.41,32.39-1.67,3.54-6,8.75-9.38,9.37,0,0,49.57,2.9,72.21-1.44l-4.08,5.19s36.55,2.6,51.91-8.89l-5.57,11.87s34.31-3,40.27-26.82l4.25,13.08s18.81-4.57,18.6-26.22l7.27,5.09s2-4.14-.22-22.68l12.43,6.07s10.52-18.21,1.06-37.4ZM358.3,911.19c-1.85,22.7-1.69,39.19-9.88,45.46-4.06,3.1-18.68,8.15-32.14,15.3a31,31,0,0,0-.75-4.68C313.39,959,334.11,860.9,336,837.17S347.67,768,347.67,768s.33.68,1,2C352.44,811.33,359.68,894.31,358.3,911.19ZM610,772.15Zm65,37.55c.3-.92.49-1.41.49-1.41h0S675.38,808.78,675.07,809.7Zm230.5,69.46c-.9-2.55-1.82-5-2.75-7.41l9,3.23S909.11,876.59,905.57,879.16ZM950.11,985v0l0,0Zm14.17,6.82h0v0Z"/></g></g></svg>